<svg xmlns="http://www.w3.org/2000/svg" width="1925" height="846" viewBox="0 0 1925 846" version="1.1">
	<path fill-opacity="0.137" d="M 410.267 1.245 C 409.724 1.935, 387.804 39.738, 361.555 85.250 L 313.830 168 362.609 252.500 L 411.388 337 508.444 336.997 L 605.500 336.994 654.260 252.493 L 703.020 167.992 654.672 84.246 L 606.324 0.500 508.788 0.245 C 431.504 0.043, 411.048 0.251, 410.267 1.245 M 420.158 27.744 C 417.993 31.460, 398.886 64.538, 377.699 101.251 L 339.176 168.002 381.461 241.251 L 423.747 314.500 508.428 314.500 L 593.109 314.500 634.769 242.500 C 659.339 200.036, 676.428 169.474, 676.428 168 C 676.428 166.526, 659.339 135.964, 634.769 93.500 L 593.110 21.500 508.602 21.244 L 424.095 20.989 420.158 27.744 M 48.110 274.078 C 5.381 348.261, -0.154 358.347, 0.802 360.295 C 1.398 361.508, 23.225 399.400, 49.307 444.500 L 96.730 526.500 193.950 526.500 L 291.170 526.500 339.585 442.636 C 366.213 396.511, 387.987 358.486, 387.972 358.136 C 387.957 357.786, 366.236 319.925, 339.705 274 L 291.465 190.500 193.982 190.284 L 96.500 190.067 48.110 274.078 M 419.245 477.250 L 419.500 576.500 441.240 576.769 L 462.980 577.039 463.240 530.269 L 463.500 483.500 503.500 530.213 L 543.500 576.925 574.424 576.963 L 605.349 577 603.335 574.750 C 602.228 573.513, 580.775 549.681, 555.661 521.791 C 530.548 493.902, 510 470.813, 510 470.483 C 510 470.153, 529.575 449.468, 553.500 424.517 C 577.425 399.566, 597 378.892, 597 378.576 C 597 378.259, 584.190 378, 568.534 378 L 540.068 378 502.434 418.250 C 481.735 440.387, 464.394 458.650, 463.900 458.833 C 463.376 459.027, 463 442.202, 463 418.583 L 463 378 440.995 378 L 418.990 378 419.245 477.250 M 652.245 477.250 L 652.500 576.500 674.250 576.770 L 696 577.039 696 477.520 L 696 378 673.995 378 L 651.990 378 652.245 477.250 M 769.287 446.250 C 769.769 520.411, 769.734 519.917, 775.646 534.836 C 782.685 552.595, 794.614 565.201, 812.256 573.520 C 826.610 580.290, 845.399 583.085, 863.750 581.181 C 878.066 579.695, 884.652 577.891, 896 572.347 C 903.947 568.464, 906.899 566.299, 914.058 559.103 C 923.552 549.559, 929.103 540.221, 933.156 526.973 C 935.432 519.535, 935.444 519.167, 935.759 448.750 L 936.076 378 914.038 378 L 892 378 892 442.395 C 892 503.772, 891.907 507.090, 890.018 513.207 C 887.674 520.794, 881.694 529.558, 876.334 533.259 C 868.124 538.928, 863.196 540.450, 853 540.465 C 844.736 540.478, 842.741 540.125, 837.664 537.756 C 826.251 532.429, 819.896 525.204, 815.668 512.748 C 813.609 506.681, 813.538 504.636, 813.220 442.250 L 812.892 378 790.868 378 L 768.843 378 769.287 446.250 M 1010 477.500 L 1010 577 1053.250 576.997 C 1108.213 576.994, 1119.517 575.691, 1136.878 567.358 C 1146.363 562.806, 1157.176 552.350, 1161.312 543.730 C 1169.320 527.042, 1166.354 503.096, 1154.577 489.355 C 1148.525 482.295, 1136.964 475.736, 1126.686 473.533 C 1124.052 472.968, 1124.341 472.696, 1131.186 469.280 C 1140.157 464.803, 1149.107 456.192, 1152.507 448.766 C 1157.727 437.365, 1157.747 418.680, 1152.552 407.333 C 1148.941 399.446, 1140.313 390.886, 1131.677 386.624 C 1117.032 379.395, 1103.800 378.002, 1049.750 378.001 L 1010 378 1010 477.500 M 1226 477.500 L 1226 577 1296 577 L 1366 577 1366 556.500 L 1366 536 1318 536 L 1270 536 1270 516 L 1270 496 1313 496 L 1356 496 1356 475.500 L 1356 455 1313 455 L 1270 455 1270 437 L 1270 419 1315.500 419 L 1361 419 1361 398.500 L 1361 378 1293.500 378 L 1226 378 1226 477.500 M 1436 477.507 L 1436 577.014 1505.750 576.757 L 1575.500 576.500 1575.771 556.250 L 1576.041 536 1528.021 536 L 1480 536 1480 516 L 1480 496 1523.021 496 L 1566.041 496 1565.771 475.750 L 1565.500 455.500 1522.750 455.239 L 1480 454.979 1480 436.989 L 1480 419 1525.500 419 L 1571 419 1571 398.500 L 1571 378 1503.500 378 L 1436 378 1436 477.507 M 1054 436.413 L 1054 457 1073.341 457 C 1093.918 457, 1099.126 456.183, 1104.943 452.041 C 1112.873 446.394, 1114.754 433.081, 1108.803 424.723 C 1107.636 423.084, 1104.165 420.564, 1101.091 419.122 C 1095.716 416.601, 1094.698 416.487, 1074.750 416.163 L 1054 415.825 1054 436.413 M 1054 516.958 L 1054 539.127 1078.750 538.813 L 1103.500 538.500 1109.350 535.628 C 1122.377 529.231, 1125.960 512.884, 1116.375 503.576 C 1109.648 497.042, 1103.670 495.770, 1077.250 495.248 L 1054 494.789 1054 516.958 M 1404.647 664.526 L 1369.795 725.017 1404.647 785.502 L 1439.500 845.986 1509.907 845.743 L 1580.313 845.500 1615.076 785.268 L 1649.839 725.037 1615.056 664.768 L 1580.273 604.500 1509.887 604.268 L 1439.500 604.035 1404.647 664.526 M 1423.972 674.173 C 1408.379 701.218, 1395.594 724.055, 1395.561 724.923 C 1395.527 725.790, 1408.281 748.663, 1423.901 775.750 L 1452.302 825 1509.901 824.967 L 1567.500 824.933 1596.264 774.990 L 1625.028 725.046 1596.264 675.065 L 1567.500 625.083 1509.911 625.042 L 1452.321 625 1423.972 674.173 M 430.589 628.071 C 421.127 630.405, 415.571 636.877, 415.571 645.563 C 415.571 653.102, 420.235 658.763, 428 660.649 C 434.458 662.217, 440.042 665.321, 440.632 667.669 C 442.197 673.906, 431.252 676.607, 425.166 671.486 L 422.179 668.973 418.096 673.736 C 415.850 676.356, 414.010 678.807, 414.006 679.182 C 413.996 680.276, 419.204 683.594, 422.899 684.847 C 428.139 686.624, 438.860 686.247, 443.541 684.120 C 451.273 680.608, 454.898 673.732, 453.705 664.838 C 452.882 658.703, 446.754 653.377, 438.460 651.589 C 429.225 649.598, 425.825 643.224, 432.508 640.432 C 436.209 638.886, 439.958 639.277, 443.683 641.598 C 445.708 642.860, 446.161 642.624, 449.917 638.357 C 452.144 635.826, 453.691 633.310, 453.355 632.765 C 451.159 629.212, 437.433 626.382, 430.589 628.071 M 473.069 632.208 C 473.582 634.018, 477.272 646.525, 481.270 660 L 488.540 684.500 494.079 684.794 L 499.619 685.088 505.646 666.294 L 511.673 647.500 517.617 666 L 523.561 684.500 529.185 684.797 L 534.808 685.094 536.353 680.297 C 538.503 673.621, 551 630.387, 551 629.624 C 551 629.281, 548.141 629, 544.647 629 L 538.294 629 533.919 645.973 C 531.513 655.307, 529.247 662.620, 528.882 662.223 C 528.517 661.825, 525.905 654.188, 523.078 645.250 L 517.936 629 512.051 629 L 506.166 629 500.948 644.750 C 498.078 653.413, 495.477 660.939, 495.166 661.477 C 494.856 662.014, 492.755 655.039, 490.497 645.977 L 486.393 629.500 479.265 629.208 L 472.138 628.915 473.069 632.208 M 572 657 L 572 685 592 685 L 612 685 612 679 L 612 673 598.500 673 L 585 673 585 667.500 L 585 662 597 662 L 609 662 609 656 L 609 650 597 650 L 585 650 585 645.500 L 585 641 597.500 641 L 610 641 610 635 L 610 629 591 629 L 572 629 572 657 M 637 657 L 637 685 657 685 L 677 685 677 679 L 677 673 663.500 673 L 650 673 650 667.500 L 650 662 662 662 L 674 662 674 656 L 674 650 662 650 L 650 650 650 645.500 L 650 641 662.500 641 L 675 641 675 635 L 675 629 656 629 L 637 629 637 657 M 696 634.500 L 696 640 704 640 L 712 640 712 662.500 L 712 685 718.500 685 L 725 685 725 662.500 L 725 640 733 640 L 741 640 741 634.500 L 741 629 718.500 629 L 696 629 696 634.500 M 585.994 721.878 C 580.952 723.524, 577.305 725.946, 573.265 730.328 C 566.428 737.745, 564.292 748.886, 567.583 759.966 C 569.783 767.377, 577.623 775.217, 585.034 777.417 C 591.826 779.434, 600.174 779.434, 606.966 777.417 C 614.377 775.217, 622.217 767.377, 624.417 759.966 C 627.709 748.881, 625.572 737.746, 618.728 730.321 C 612.443 723.502, 608.137 721.682, 597.500 721.345 C 592.550 721.188, 587.372 721.428, 585.994 721.878 M 952.883 724.257 C 945.932 727.856, 940.739 733.679, 939.046 739.775 C 937.684 744.676, 937.845 756.668, 939.326 760.684 C 941.526 766.651, 946.492 772.429, 952.061 775.500 C 957.202 778.336, 958.102 778.497, 968.500 778.445 C 976.922 778.403, 980.789 777.919, 985 776.380 L 990.500 774.371 990.777 759.685 L 991.053 745 980.027 745 L 969 745 969 750.500 L 969 756 974 756 L 979 756 979 760.525 C 979 764.528, 978.683 765.176, 976.250 766.146 C 971.640 767.985, 962.678 767.580, 958.878 765.361 C 953.345 762.129, 950.862 756.739, 951.241 748.782 C 951.623 740.772, 953.574 737.544, 960.020 734.250 C 965.746 731.324, 970.506 731.405, 976.581 734.532 L 981.500 737.064 985.751 732.308 L 990.002 727.552 986.251 725.269 C 980.840 721.976, 976.565 721.012, 967.337 721.006 C 960.073 721.001, 958.482 721.358, 952.883 724.257 M 418.234 749.750 L 418.500 777.500 424.750 777.798 L 431 778.095 431 764.958 L 431 751.821 442.189 764.911 L 453.377 778 461.689 778 C 466.260 778, 470 777.743, 470 777.430 C 470 777.116, 464.109 770.370, 456.910 762.438 L 443.820 748.017 455.923 735.259 L 468.025 722.500 460.263 722.181 L 452.500 721.862 441.778 733.181 L 431.057 744.500 431.028 733.250 L 431 722 424.484 722 L 417.968 722 418.234 749.750 M 490 750 L 490 778 495.979 778 L 501.958 778 502.229 758.316 L 502.500 738.633 514.500 758.317 L 526.500 778 534.500 777.750 L 542.500 777.500 542.766 749.750 L 543.032 722 536.538 722 L 530.044 722 529.772 740.709 L 529.500 759.419 518.099 740.709 L 506.698 722 498.349 722 L 490 722 490 750 M 644.377 723.750 C 644.658 724.712, 648.368 737.313, 652.622 751.750 L 660.355 778 665.648 778 L 670.941 778 676.586 760.250 C 679.691 750.487, 682.537 742.164, 682.911 741.754 C 683.286 741.344, 686.239 749.352, 689.475 759.549 L 695.359 778.089 700.927 777.795 L 706.495 777.500 714.176 751.500 C 718.401 737.200, 721.890 724.712, 721.929 723.750 C 721.989 722.272, 721.078 722, 716.067 722 C 711.282 722, 710.034 722.339, 709.614 723.750 C 709.327 724.712, 707.688 730.900, 705.971 737.500 C 704.254 744.100, 702.363 751.300, 701.769 753.500 L 700.689 757.500 695.051 740 L 689.413 722.500 683.540 722.500 L 677.667 722.500 671.974 739.500 C 665.441 759.009, 666.753 759.455, 660.944 735.750 L 657.575 722 650.720 722 C 644.663 722, 643.925 722.204, 644.377 723.750 M 744 750.024 L 744 778.047 761.250 777.774 L 778.500 777.500 778.800 771.750 L 779.100 766 767.550 766 L 756 766 756 744 L 756 722 750 722 L 744 722 744 750.024 M 801.234 749.750 L 801.500 777.500 821 777.500 L 840.500 777.500 840.800 771.750 L 841.100 766 827.550 766 L 814 766 814 760.500 L 814 755 826 755 L 838 755 838 749.500 L 838 744 826 744 L 814 744 814 739 L 814 734 826.500 734 L 839 734 839 728 L 839 722 819.984 722 L 800.968 722 801.234 749.750 M 866 749.876 L 866 778 876.316 778 C 894.605 778, 904.918 774.679, 911.180 766.773 C 918.541 757.478, 918.903 744.546, 912.102 733.822 C 909.812 730.210, 907.726 728.498, 902.460 725.906 C 895.947 722.699, 895.281 722.584, 880.870 722.175 L 866 721.752 866 749.876 M 1017.234 749.750 L 1017.500 777.500 1037 777.500 L 1056.500 777.500 1056.800 771.750 L 1057.100 766 1043.550 766 L 1030 766 1030 760.500 L 1030 755 1042 755 L 1054 755 1054 749.500 L 1054 744 1042 744 L 1030 744 1030 739 L 1030 734 1042.500 734 L 1055 734 1055 728 L 1055 722 1035.984 722 L 1016.968 722 1017.234 749.750 M 587.985 734.290 C 577.760 739.697, 576.165 755.913, 585.117 763.445 C 594.119 771.019, 607.338 767.537, 611.561 756.480 C 615.986 744.892, 607.791 732, 596 732 C 593.973 732, 590.366 733.030, 587.985 734.290 M 878 750 L 878 766 883.634 766 C 886.733 766, 891.029 765.472, 893.182 764.827 C 903.966 761.596, 907.446 746.570, 899.227 738.729 C 895.450 735.126, 891.928 734, 884.435 734 L 878 734 878 750" stroke="none" fill="black" fill-rule="evenodd"/>
	<path fill-opacity="0.128" d="M 407.697 5.745 C 405.797 8.910, 383.934 46.710, 359.113 89.745 L 313.982 167.990 361.132 249.745 C 387.065 294.710, 409.149 332.738, 410.209 334.250 L 412.136 337 508.446 337 C 584.281 337, 604.972 336.734, 605.777 335.750 C 606.340 335.063, 628.418 297.040, 654.840 251.257 L 702.880 168.013 654.541 84.257 L 606.202 0.500 508.676 0.245 L 411.151 -0.010 407.697 5.745 M 422.629 23.244 C 421.846 24.485, 402.712 57.562, 380.109 96.748 L 339.014 167.997 381.310 241.248 L 423.606 314.500 508.436 314.500 L 593.265 314.500 635.549 241.257 L 677.833 168.014 635.543 94.757 L 593.253 21.500 508.653 21.244 L 424.053 20.989 422.629 23.244 M 52 268.197 C 27.525 310.628, 5.853 348.305, 3.840 351.923 L 0.180 358.500 48.412 442 L 96.644 525.500 193.948 525.500 L 291.251 525.500 339.191 442.500 C 365.557 396.850, 387.213 359.159, 387.315 358.743 C 387.417 358.326, 365.900 320.432, 339.500 274.532 L 291.500 191.079 194 191.064 L 96.500 191.048 52 268.197 M 420 477.500 L 420 576 441.490 576 L 462.980 576 463.240 529.445 L 463.500 482.890 503.384 529.445 L 543.267 576 573.709 576 L 604.150 576 592.194 562.750 C 585.619 555.462, 564.220 531.728, 544.641 510.007 L 509.043 470.515 514.350 465.007 C 517.268 461.978, 534.890 443.525, 553.509 424 C 572.129 404.475, 589.401 386.363, 591.894 383.750 L 596.425 379 567.962 379.012 L 539.500 379.024 501.500 419.705 L 463.500 460.386 463.239 419.693 L 462.978 379 441.489 379 L 420 379 420 477.500 M 653 477.500 L 653 576 674.500 576 L 696 576 696 477.500 L 696 379 674.500 379 L 653 379 653 477.500 M 770.235 448.250 C 770.562 515.766, 770.625 517.694, 772.744 525.249 C 778.961 547.414, 791.235 562.628, 810.500 572.051 C 825.357 579.318, 831.020 580.438, 853 580.456 C 874.987 580.473, 880.286 579.399, 895.920 571.755 C 904.608 567.506, 907.636 565.364, 914.136 558.864 C 920.673 552.327, 922.730 549.410, 926.885 540.785 C 935.638 522.614, 935.327 525.888, 935.733 447.750 L 936.090 379 914.545 379 L 893 379 892.985 441.250 C 892.969 508.983, 892.823 511.043, 887.301 521.187 C 883.816 527.591, 876.308 534.497, 869.218 537.820 C 864.154 540.193, 862.299 540.500, 853 540.500 C 843.701 540.500, 841.846 540.193, 836.782 537.820 C 829.696 534.499, 822.184 527.592, 818.705 521.199 C 813.051 510.811, 813 510.102, 813 441.790 L 813 379 791.449 379 L 769.899 379 770.235 448.250 M 1011 477.566 L 1011 576.132 1061.250 575.744 C 1108.613 575.377, 1111.966 575.232, 1119.614 573.225 C 1139.771 567.934, 1153.447 558.230, 1160.480 544.227 C 1163.849 537.520, 1164.947 531.950, 1164.976 521.432 C 1165.023 503.930, 1158.594 491.009, 1145.283 481.851 C 1140.360 478.464, 1129.099 474, 1125.477 474 C 1121.334 474, 1122.693 472.672, 1130.777 468.822 C 1147.506 460.854, 1156 447.222, 1156 428.339 C 1156 400.402, 1139.274 384.104, 1106.500 380.104 C 1101.242 379.462, 1079.516 379.004, 1054.250 379.003 L 1011 379 1011 477.566 M 1227 477.500 L 1227 576 1296.500 576 L 1366 576 1366 556 L 1366 536 1318 536 L 1270 536 1270 516 L 1270 496 1312.500 496 L 1355 496 1355 476 L 1355 456 1312.500 456 L 1270 456 1270 437 L 1270 418 1315.500 418 L 1361 418 1361 398.500 L 1361 379 1294 379 L 1227 379 1227 477.500 M 1436 477.500 L 1436 576 1505.500 576 L 1575 576 1575 556 L 1575 536 1527 536 L 1479 536 1479 516 L 1479 496 1522 496 L 1565 496 1565 476.011 L 1565 456.021 1522.250 455.761 L 1479.500 455.500 1479.500 437 L 1479.500 418.500 1524.750 418.240 L 1570 417.980 1570 398.490 L 1570 379 1503 379 L 1436 379 1436 477.500 M 1054 436.383 L 1054 458 1072.184 458 C 1092.872 458, 1099.396 456.771, 1105.526 451.718 C 1111.947 446.426, 1114.727 436.711, 1111.939 429.315 C 1110.235 424.797, 1105.029 420.161, 1099.051 417.839 C 1094.230 415.966, 1090.904 415.623, 1073.750 415.225 L 1054 414.766 1054 436.383 M 1054 516.849 L 1054 540 1074.316 540 C 1102.408 540, 1109.994 538.327, 1116.739 530.645 C 1120.760 526.065, 1122.330 520.989, 1121.779 514.346 C 1121.266 508.165, 1119.202 504.819, 1113.406 500.775 C 1106.817 496.178, 1099.658 494.945, 1075.750 494.292 L 1054 493.698 1054 516.849 M 1439.685 604.750 C 1386.451 696.934, 1371.004 724.015, 1371.024 725.129 C 1371.037 725.883, 1386.522 753.275, 1405.434 786 L 1439.821 845.500 1509.678 845.757 L 1579.534 846.013 1614.017 786.257 C 1632.983 753.391, 1648.474 725.803, 1648.442 724.950 C 1648.410 724.098, 1632.888 696.535, 1613.948 663.700 L 1579.511 604 1509.815 604 C 1471.482 604, 1439.923 604.337, 1439.685 604.750 M 1450.616 627.250 C 1449.830 628.487, 1436.796 650.993, 1421.653 677.262 L 1394.121 725.025 1422.822 774.762 L 1451.523 824.500 1509.652 824.758 L 1567.781 825.016 1596.391 775.489 C 1612.126 748.250, 1625 725.566, 1625 725.082 C 1625 724.598, 1612.127 701.881, 1596.392 674.601 L 1567.785 625 1509.915 625 L 1452.046 625 1450.616 627.250 M 434.500 627.486 C 433.950 627.678, 431.772 628.126, 429.660 628.480 C 424.185 629.399, 417.554 635.744, 416.120 641.436 C 413.748 650.856, 418.156 657.232, 429.678 661.049 C 438.408 663.940, 441 665.656, 441 668.544 C 441 672.223, 438.415 674, 433.063 674 C 429.722 674, 427.468 673.370, 425.625 671.920 C 424.171 670.776, 422.620 669.988, 422.179 670.170 C 421.739 670.351, 419.664 672.414, 417.569 674.754 C 413.080 679.767, 413.429 680.648, 421.238 684.007 C 428.574 687.163, 440.076 686.539, 445.926 682.667 C 453.369 677.742, 456.252 667.205, 452.044 660.304 C 449.612 656.316, 446.980 654.573, 439.500 652 C 431.608 649.285, 429 647.446, 429 644.599 C 429 639.778, 436.195 637.721, 442.204 640.825 L 445.908 642.738 449.928 637.970 C 454.351 632.725, 454.230 632.220, 447.923 629.644 C 444.353 628.186, 436.229 626.880, 434.500 627.486 M 475.568 640.250 C 477.421 646.438, 481.133 658.925, 483.819 668 L 488.701 684.500 494.144 684.794 L 499.587 685.087 505.543 666.116 C 508.820 655.682, 511.709 647.675, 511.963 648.322 C 512.218 648.970, 514.946 657.375, 518.026 667 L 523.625 684.500 529.230 684.797 C 533.912 685.046, 534.925 684.799, 535.378 683.297 C 538.299 673.630, 551 629.899, 551 629.509 C 551 629.229, 548.123 629, 544.608 629 L 538.215 629 533.903 646.433 C 531.532 656.021, 529.283 663.675, 528.906 663.442 C 528.530 663.209, 527.917 661.777, 527.544 660.259 C 527.172 658.742, 524.836 651.087, 522.354 643.250 L 517.841 629 511.952 629 L 506.064 629 500.922 645.250 C 498.095 654.188, 495.475 661.833, 495.101 662.240 C 494.726 662.647, 492.905 656.797, 491.053 649.240 C 489.201 641.683, 487.286 634.038, 486.796 632.250 L 485.906 629 479.053 629 L 472.200 629 475.568 640.250 M 572 657 L 572 685 592 685 L 612 685 612 679 L 612 673 598.500 673 L 585 673 585 667.500 L 585 662 597.050 662 L 609.100 662 608.800 656.250 L 608.500 650.500 596.750 650.218 L 585 649.937 585 645.468 L 585 641 597.500 641 L 610 641 610 635 L 610 629 591 629 L 572 629 572 657 M 637 657.021 L 637 685.042 656.750 684.771 L 676.500 684.500 676.500 679 L 676.500 673.500 663.250 673.221 L 650 672.942 650 667.471 L 650 662 662.050 662 L 674.100 662 673.800 656.250 L 673.500 650.500 661.750 650.218 L 650 649.937 650 645.468 L 650 641 662.500 641 L 675 641 675 635 L 675 629 656 629 L 637 629 637 657.021 M 696 634.481 L 696 640 704 640 L 712 640 712 662.500 L 712 685 718.500 685 L 725 685 725 662.500 L 725 640 733.052 640 L 741.105 640 740.802 634.750 L 740.500 629.500 718.250 629.231 L 696 628.962 696 634.481 M 585.332 722.851 C 578.469 725.223, 573.646 729.044, 570.272 734.784 C 567.742 739.089, 567.500 740.372, 567.500 749.500 C 567.500 757.381, 567.910 760.327, 569.437 763.403 C 575.248 775.116, 589.514 781.135, 603.363 777.717 C 618.783 773.912, 625.681 764.201, 624.806 747.533 C 624.456 740.858, 623.858 738.434, 621.621 734.616 C 614.937 723.210, 599.126 718.084, 585.332 722.851 M 959.500 721.875 C 945.520 725.590, 936.954 737.950, 938.316 752.442 C 939.709 767.267, 948.623 776.475, 963.500 778.453 C 969.196 779.211, 980.201 777.704, 986.046 775.365 L 990 773.783 990 759.391 L 990 745 979.500 745 L 969 745 969 750.500 L 969 756 974 756 L 979 756 979 760.870 L 979 765.740 974.500 767 C 962.932 770.239, 952.447 764.232, 950.373 753.177 C 949.597 749.037, 951.246 741.898, 953.770 738.480 C 958.538 732.019, 969.636 729.982, 977.126 734.191 L 981.024 736.382 985.012 732.488 C 987.206 730.346, 989 728.211, 989 727.742 C 989 727.273, 986.500 725.745, 983.445 724.346 C 977.477 721.614, 965.235 720.350, 959.500 721.875 M 419 750 L 419 777 424.500 777 L 430 777 430 764.500 C 430 757.625, 430.358 752, 430.796 752 C 431.234 752, 436.421 757.625, 442.322 764.500 L 453.052 777 461.181 777 C 468.837 777, 469.221 776.898, 467.786 775.250 C 466.948 774.288, 461.254 767.910, 455.131 761.078 C 449.009 754.245, 444 748.305, 444 747.877 C 444 747.448, 449.227 741.676, 455.617 735.049 L 467.233 723 459.367 723.022 L 451.500 723.043 441.500 733.984 C 436 740.002, 431.163 744.942, 430.750 744.963 C 430.337 744.983, 430 740.050, 430 734 L 430 723 424.500 723 L 419 723 419 750 M 490 750 L 490 777 495.979 777 L 501.958 777 502.229 757.344 L 502.500 737.687 514.496 757.344 L 526.491 777 534.246 777 L 542 777 542 750 L 542 723 536.500 723 L 531 723 531 741.500 C 531 751.675, 530.628 760, 530.173 760 C 529.718 760, 524.264 751.675, 518.054 741.500 L 506.761 723 498.381 723 L 490 723 490 750 M 645.262 724.896 C 645.550 725.994, 649.096 738.165, 653.142 751.941 L 660.500 776.989 665.660 776.995 L 670.819 777 675.843 761.250 C 678.606 752.587, 681.172 744.258, 681.544 742.741 C 681.917 741.223, 682.519 739.797, 682.884 739.572 C 683.248 739.347, 686.219 747.696, 689.487 758.125 L 695.428 777.087 700.879 776.794 L 706.330 776.500 714.046 750 L 721.762 723.500 716.268 723.197 C 713.246 723.030, 710.618 723.049, 710.427 723.240 C 710.237 723.430, 708.238 730.766, 705.986 739.543 C 701.244 758.023, 701.115 758.449, 700.456 757.789 C 700.183 757.516, 697.573 749.689, 694.657 740.396 L 689.355 723.500 683.471 723.500 L 677.587 723.500 671.936 741 C 666.927 756.514, 666.193 758.160, 665.467 755.500 C 665.016 753.850, 663.013 745.975, 661.015 738 L 657.382 723.500 651.061 723.199 C 645.166 722.918, 644.775 723.032, 645.262 724.896 M 744 750 L 744 777 761 777 L 778 777 778 772 L 778 767 767 767 L 756 767 756 745 L 756 723 750 723 L 744 723 744 750 M 802 750 L 802 777 821 777 L 840 777 840 772.029 L 840 767.058 826.750 766.779 L 813.500 766.500 813.200 760.750 L 812.900 755 824.950 755 L 837 755 837 749.532 L 837 744.063 825.250 743.782 L 813.500 743.500 813.500 738.500 L 813.500 733.500 826.250 733.220 L 839 732.940 839 727.970 L 839 723 820.500 723 L 802 723 802 750 M 866 750.002 L 866 777.183 880.750 776.814 C 893.570 776.493, 896.186 776.138, 900.742 774.103 C 906.467 771.545, 912.396 765.690, 914.597 760.422 C 916.888 754.938, 916.397 743.383, 913.623 737.500 C 910.764 731.439, 908.039 728.814, 901.488 725.813 C 897.138 723.821, 894.551 723.484, 881.250 723.175 L 866 722.821 866 750.002 M 1018 750 L 1018 777 1037 777 L 1056 777 1056 772.029 L 1056 767.058 1042.750 766.779 L 1029.500 766.500 1029.200 760.750 L 1028.900 755 1040.950 755 L 1053 755 1053 749.532 L 1053 744.063 1041.250 743.782 L 1029.500 743.500 1029.500 738.500 L 1029.500 733.500 1042.250 733.220 L 1055 732.940 1055 727.970 L 1055 723 1036.500 723 L 1018 723 1018 750 M 588.500 733.357 C 576.136 739.078, 575.535 758.925, 587.520 765.713 C 595.629 770.306, 606.118 767.493, 610.769 759.480 C 612.686 756.178, 613.024 754.356, 612.759 748.782 C 612.417 741.622, 610.844 738.466, 605.702 734.627 C 602.309 732.094, 592.753 731.388, 588.500 733.357 M 878 750.009 L 878 767.287 885.247 766.614 C 898.155 765.414, 903.150 761.137, 903.791 750.739 C 904.116 745.461, 903.813 743.961, 901.824 741 C 898.689 736.332, 893.213 733.820, 884.874 733.223 L 878 732.731 878 750.009" stroke="none" fill="black" fill-rule="evenodd"/>
	<path fill-opacity="0.635" d="M 363.102 83.333 C 336.646 129.167, 315 167.270, 315 168.008 C 315 168.745, 336.645 206.845, 363.101 252.674 L 411.201 336 508.432 336 L 605.663 336 653.832 252.543 C 680.324 206.642, 702 168.598, 702 168 C 702 167.402, 680.324 129.358, 653.832 83.457 L 605.663 0 508.434 0 L 411.204 0 363.102 83.333 M 381.150 94.528 L 338.801 168.017 381.150 241.488 L 423.500 314.959 508.500 314.934 L 593.500 314.908 635.786 241.454 L 678.072 168 635.786 94.546 L 593.500 21.092 508.500 21.065 L 423.500 21.038 381.150 94.528 M 427.007 629.593 C 419.606 632.803, 416 638.199, 416 646.068 C 416 650.709, 416.382 651.615, 419.750 654.964 C 422.265 657.465, 425.657 659.408, 430.048 660.861 C 439.197 663.890, 441.184 665.456, 440.806 669.346 C 440.544 672.047, 439.905 672.706, 436.359 673.931 C 432.448 675.284, 431.938 675.224, 427.148 672.854 L 422.078 670.345 417.789 674.723 L 413.500 679.102 416 681.029 C 420.434 684.447, 427.700 686.298, 434.531 685.750 C 445.432 684.875, 452.103 679.463, 453.567 670.306 C 454.961 661.588, 450.284 655.457, 439.889 652.379 C 431.110 649.779, 429 648.355, 429 645.031 C 429 639.515, 435.716 637.348, 442.635 640.631 C 444.525 641.528, 446.168 642.083, 446.286 641.866 C 446.404 641.648, 448.264 639.579, 450.421 637.268 L 454.341 633.066 448.921 630.543 C 442.551 627.578, 432.644 627.148, 427.007 629.593 M 473 629.832 C 473 630.290, 475.724 639.853, 479.053 651.082 C 482.382 662.312, 486.008 674.560, 487.110 678.300 L 489.115 685.101 494.261 684.800 L 499.408 684.500 505.541 665.500 L 511.675 646.500 517.896 665.750 L 524.118 685 529.024 685 C 532.688 685, 534.157 684.557, 534.826 683.250 C 535.319 682.288, 538.993 670.250, 542.991 656.500 C 546.989 642.750, 550.483 630.915, 550.756 630.199 C 551.139 629.197, 549.789 628.967, 544.877 629.199 L 538.500 629.500 533.938 647.459 C 531.429 657.337, 529.147 664.987, 528.866 664.459 C 528.586 663.932, 525.938 655.737, 522.984 646.250 L 517.612 629 511.999 629 L 506.386 629 501.018 645.750 C 498.066 654.962, 495.376 662.830, 495.042 663.233 C 494.707 663.636, 492.488 656.099, 490.109 646.483 L 485.785 629 479.392 629 C 475.877 629, 473 629.375, 473 629.832 M 572.452 630.266 C 572.184 630.962, 572.086 643.449, 572.233 658.016 L 572.500 684.500 592 684.500 L 611.500 684.500 611.500 679 L 611.500 673.500 598.250 673.221 L 585 672.942 585 667.471 L 585 662 597 662 L 609 662 609 656.500 L 609 651 597 651 L 585 651 585 646 L 585 641 597.500 641 L 610 641 610 635 L 610 629 591.469 629 C 577.444 629, 572.819 629.308, 572.452 630.266 M 637.234 656.750 L 637.500 684.500 656.750 684.772 L 676 685.043 676 679.022 L 676 673 663 673 L 650 673 650 667.500 L 650 662 662 662 L 674 662 674 656.500 L 674 651 662 651 L 650 651 650 646.031 L 650 641.062 662.250 640.781 L 674.500 640.500 674.800 634.750 L 675.100 629 656.034 629 L 636.968 629 637.234 656.750 M 696.667 629.667 C 696.300 630.033, 696 632.508, 696 635.167 L 696 640 703.981 640 L 711.962 640 712.231 662.250 L 712.500 684.500 718.500 684.500 L 724.500 684.500 724.769 662.250 L 725.038 640 732.519 640 L 740 640 740 634.500 L 740 629 718.667 629 C 706.933 629, 697.033 629.300, 696.667 629.667" stroke="none" fill="black" fill-rule="evenodd"/>
	<path fill-opacity="0.886" d="M 363.500 83.264 C 337.100 129.044, 315.500 167.175, 315.500 168 C 315.500 168.825, 337.100 206.956, 363.500 252.736 L 411.500 335.971 508.500 335.946 L 605.500 335.921 653.862 251.964 L 702.223 168.006 653.862 84.043 L 605.500 0.080 508.500 0.055 L 411.500 0.029 363.500 83.264 M 381.117 93.964 C 357.952 134.094, 339 167.410, 339 168 C 339 168.590, 357.952 201.906, 381.117 242.036 L 423.233 315 508.430 315 L 593.627 315 635.564 242.336 C 658.629 202.371, 677.500 168.920, 677.500 168 C 677.500 167.080, 658.629 133.629, 635.564 93.664 L 593.627 21 508.430 21 L 423.233 21 381.117 93.964 M 428.759 629.423 C 422.767 631.561, 419.962 633.870, 417.938 638.328 C 414.546 645.799, 415.975 652.744, 421.735 656.780 C 423.256 657.845, 427.467 659.694, 431.093 660.888 C 441.693 664.378, 444.690 668.739, 439.365 672.927 C 435.742 675.777, 430.201 675.625, 425.673 672.553 L 422.066 670.105 418.533 674.233 C 416.590 676.503, 415 678.736, 415 679.195 C 415 680.737, 421.404 683.942, 426.673 685.036 C 436.871 687.153, 447.788 683.179, 451.501 675.998 C 452.325 674.404, 453 670.549, 453 667.432 C 453 662.213, 452.703 661.467, 449.235 658 C 446.513 655.277, 443.731 653.748, 439.185 652.472 C 428.806 649.560, 425.531 645.469, 430 641 C 432.431 638.569, 438.783 638.319, 442.980 640.490 C 445.809 641.953, 445.926 641.905, 449.417 637.826 C 453.662 632.867, 453.147 631.715, 445.699 629.503 C 439.535 627.673, 433.740 627.645, 428.759 629.423 M 473.495 631.250 C 473.733 631.938, 477.115 643.300, 481.010 656.500 C 484.906 669.700, 488.335 681.310, 488.630 682.299 C 489.072 683.783, 490.065 684.046, 494.287 683.799 L 499.408 683.500 505.541 664.500 L 511.675 645.500 517.896 664.750 L 524.118 684 529.362 684 L 534.607 684 541.958 658.750 C 546.001 644.862, 549.523 632.688, 549.785 631.696 C 550.210 630.086, 549.637 629.925, 544.463 630.196 L 538.664 630.500 534.106 648.224 C 531.599 657.972, 529.278 665.622, 528.949 665.224 C 528.619 664.826, 525.934 656.737, 522.981 647.250 L 517.612 630 511.999 630 L 506.386 630 501.018 646.750 C 498.066 655.962, 495.376 663.830, 495.042 664.233 C 494.707 664.636, 492.488 657.099, 490.109 647.483 L 485.785 630 479.424 630 C 474.771 630, 473.179 630.336, 473.495 631.250 M 573 657 L 573 684 592 684 L 611 684 611 679.029 L 611 674.058 597.750 673.779 L 584.500 673.500 584.200 667.750 L 583.900 662 595.950 662 L 608 662 608 656.500 L 608 651 595.948 651 L 583.895 651 584.198 645.750 L 584.500 640.500 597.250 640.220 L 610 639.940 610 634.970 L 610 630 591.500 630 L 573 630 573 657 M 638 657 L 638 684 657 684 L 676 684 676 679.029 L 676 674.058 662.750 673.779 L 649.500 673.500 649.200 667.750 L 648.900 662 660.950 662 L 673 662 673 656.500 L 673 651 661 651 L 649 651 649 645.500 L 649 640 661.500 640 L 674 640 674 635 L 674 630 656 630 L 638 630 638 657 M 697 635 L 697 640 705 640 L 713 640 713 662 L 713 684 718.500 684 L 724 684 724 662 L 724 640 732 640 L 740 640 740 635 L 740 630 718.500 630 L 697 630 697 635" stroke="none" fill="black" fill-rule="evenodd"/>
</svg>