<svg width="1925" height="846" version="1.1" xmlns="http://www.w3.org/2000/svg" desc="Created with imagetracer.js version 1.2.6" ><path fill="rgb(7,6,4)" stroke="rgb(7,6,4)" stroke-width="1" opacity="0.5372549019607843" d="M 411.5 0 L 605.5 0 L 607 1.5 L 703 168.5 L 606 337 L 411.5 337 L 411 335.5 L 314 167.5 L 411.5 0 Z M 425 21 L 339 168 L 422 313 L 425 315 L 593 315 L 678 169 L 594 23 L 593 21 L 425 21 Z " /><path fill="rgb(7,6,4)" stroke="rgb(7,6,4)" stroke-width="1" opacity="0.5372549019607843" d="M 435.5 627 L 447.5 629 L 454 633.5 L 446.5 642 L 435.5 639 L 431.5 640 L 429 642.5 Q 428 648 431.5 649 L 447.5 655 L 452 659.5 Q 455.5 663.5 454 672.5 L 447.5 682 Q 440.5 688 425.5 686 L 414 679.5 L 421.5 670 L 423.5 670 L 428.5 674 L 437.5 674 L 440 673 L 441 666.5 L 436.5 663 L 423.5 659 L 418 654.5 Q 414.7 651.3 415 644.5 L 417 637.5 L 424.5 630 L 435.5 627 Z " /><path fill="rgb(7,6,4)" stroke="rgb(7,6,4)" stroke-width="1" opacity="0.5372549019607843" d="M 473 629 L 485.5 629 L 487 630.5 L 487 634.5 L 494.5 663 L 496 661.5 L 506 629 L 517.5 629 L 518 630.5 L 528 662.5 L 529.5 664 L 538 629 L 550.5 629 L 551 631.5 L 535 685 L 524.5 685 L 523 683.5 L 511.5 647 L 500 685 L 489.5 685 L 488 683.5 L 480 653.5 L 474 636.5 L 473 629 Z " /><path fill="rgb(7,6,4)" stroke="rgb(7,6,4)" stroke-width="1" opacity="0.5372549019607843" d="M 573.5 629 L 609.5 629 L 610 629.5 L 610 641 L 585 641 L 585 650 L 607.5 650 L 609 651.5 L 609 662 L 585 662 L 585 673 L 610.5 673 L 612 674.5 L 612 683.5 L 610.5 685 L 573.5 685 L 572 683.5 L 572 630.5 L 573.5 629 Z " /><path fill="rgb(7,6,4)" stroke="rgb(7,6,4)" stroke-width="1" opacity="0.5372549019607843" d="M 637 629 L 674.5 629 L 675 629.5 L 675 639.5 L 673.5 641 L 650 641 L 650 650 L 672.5 650 L 674 651.5 L 674 662 L 650 662 L 650 673 L 675.5 673 L 677 674.5 L 677 683.5 L 675.5 685 L 638.5 685 L 637 683.5 L 637 629 Z " /><path fill="rgb(7,6,4)" stroke="rgb(7,6,4)" stroke-width="1" opacity="0.5372549019607843" d="M 697.5 629 L 739.5 629 L 741 630.5 L 741 638.5 L 739.5 640 L 725.5 640 L 725 640.5 L 725 683.5 L 723.5 685 L 713.5 685 L 712 683.5 L 712 640 L 696 640 L 696 630.5 L 697.5 629 Z " /><path fill="rgb(0,0,0)" stroke="rgb(0,0,0)" stroke-width="1" opacity="0" d="M 0 0 L 411 0.5 L 314 168.5 L 411 337 L 605.5 337 L 606 335.5 L 703 167.5 L 606 0.5 L 1925 0 L 1925 846 L 1581 846 L 1650 724.5 L 1581 604 L 1439.5 604 L 1438 605.5 L 1371 721.5 L 1370 726.5 L 1439 845.5 L 0 846 L 0.5 360 L 96 527 L 291.5 527 L 292 525.5 L 385 365.5 L 388 359.5 L 388 356.5 L 292 190 L 96.5 190 L 95 191.5 L 0.5 356 L 0 0 Z M 419 378 L 419 577 L 420 577 L 464 577 L 465 485 L 538 572 L 544 577 L 605 577 L 597 567 L 510 471 L 598 379 L 540 378 L 475 448 L 464 458 L 464 378 L 419 378 Z M 652 378 L 652 577 L 653 577 L 697 577 L 697 379 L 697 378 L 652 378 Z M 769 378 L 769 509 L 770 510 L 771 523 L 775 536 L 786 555 Q 797 568 814 575 L 829 580 L 841 581 L 842 582 L 865 582 L 882 579 Q 899 574 911 564 Q 924 553 931 536 L 935 522 L 936 509 L 937 508 L 937 378 L 892 378 L 892 507 Q 890 518 884 526 L 871 537 L 857 541 L 844 540 L 831 534 Q 818 525 814 507 L 814 378 L 769 378 Z M 1010 378 L 1010 577 L 1103 577 L 1104 576 L 1117 575 L 1131 571 L 1150 560 Q 1162 550 1166 531 L 1166 514 L 1165 509 Q 1163 498 1157 492 Q 1146 477 1125 473 L 1134 469 L 1145 461 L 1153 450 L 1157 435 Q 1159 410 1148 399 Q 1139 388 1126 383 L 1108 379 L 1099 379 L 1098 378 L 1010 378 Z M 1226 378 L 1226 577 L 1366 577 L 1366 536 L 1270 536 L 1270 496 L 1356 496 L 1356 455 L 1270 455 L 1270 419 L 1361 419 L 1361 379 L 1361 378 L 1226 378 Z M 1436 378 L 1436 577 L 1576 577 L 1576 536 L 1480 536 L 1480 496 L 1566 496 L 1566 455 L 1480 455 L 1480 419 L 1571 419 L 1571 379 L 1571 378 L 1436 378 Z M 436 627 L 425 630 L 417 638 L 415 645 Q 415 651 418 655 L 424 659 L 437 663 L 441 667 L 440 673 L 438 674 L 429 674 L 424 670 L 422 670 L 414 680 L 426 686 Q 441 688 448 682 L 454 673 Q 456 664 452 660 L 448 655 L 432 649 Q 428 648 429 643 L 432 640 L 436 639 L 447 642 L 454 634 L 448 629 L 436 627 Z M 473 629 L 474 637 L 480 654 L 488 684 L 490 685 L 500 685 L 512 647 L 523 684 L 525 685 L 535 685 L 551 632 L 551 629 L 538 629 L 530 664 L 528 663 L 518 631 L 518 629 L 506 629 L 496 662 L 495 663 L 487 635 L 487 631 L 486 629 L 473 629 Z M 574 629 L 572 631 L 572 684 L 574 685 L 611 685 L 612 684 L 612 675 L 611 673 L 585 673 L 585 662 L 609 662 L 609 652 L 608 650 L 585 650 L 585 641 L 610 641 L 610 630 L 610 629 L 574 629 Z M 637 629 L 637 684 L 639 685 L 676 685 L 677 684 L 677 675 L 676 673 L 650 673 L 650 662 L 674 662 L 674 652 L 673 650 L 650 650 L 650 641 L 674 641 L 675 640 L 675 630 L 675 629 L 637 629 Z M 698 629 L 696 631 L 696 640 L 712 640 L 712 684 L 714 685 L 724 685 L 725 684 L 725 641 L 726 640 L 740 640 L 741 639 L 741 631 L 740 629 L 698 629 Z M 593 720 L 584 722 L 577 726 Q 568 732 566 744 L 566 757 L 572 770 Q 578 776 589 779 Q 608 781 617 773 Q 623 767 626 757 Q 628 740 621 732 Q 613 719 593 720 Z M 965 720 L 956 722 L 950 725 L 940 736 L 937 747 L 938 759 L 942 768 Q 948 776 960 779 Q 981 782 991 774 L 991 744 L 969 744 L 969 756 L 979 756 L 979 765 L 974 767 Q 963 769 959 765 Q 953 762 951 755 L 951 746 L 955 737 L 960 734 L 967 732 L 975 733 L 982 738 L 990 728 L 982 722 L 972 720 L 965 720 Z M 418 722 L 418 778 L 419 778 L 431 778 L 432 753 L 454 778 L 471 778 L 445 749 L 449 743 L 468 724 L 468 722 L 452 722 L 433 743 L 431 744 L 431 722 L 418 722 Z M 490 722 L 490 778 L 491 778 L 503 778 L 504 741 L 525 777 L 527 778 L 543 778 L 543 723 L 543 722 L 530 722 L 530 759 L 509 725 L 507 722 L 490 722 Z M 644 722 L 660 777 L 661 778 L 671 778 L 684 742 L 695 777 L 696 778 L 707 778 L 720 731 L 723 724 L 723 722 L 711 722 L 709 724 L 701 757 L 690 725 L 690 722 L 677 722 L 667 756 L 658 725 L 658 722 L 644 722 Z M 743 722 L 743 778 L 779 778 L 779 766 L 756 766 L 756 723 L 756 722 L 743 722 Z M 801 722 L 801 778 L 841 778 L 841 766 L 814 766 L 814 755 L 838 755 L 838 743 L 814 743 L 814 734 L 839 734 L 839 723 L 839 722 L 801 722 Z M 865 722 L 865 778 L 892 778 Q 901 777 907 772 Q 914 767 917 757 Q 919 741 913 734 Q 908 726 898 723 L 893 722 L 865 722 Z M 1017 722 L 1017 778 L 1057 778 L 1057 766 L 1030 766 L 1030 755 L 1054 755 L 1054 743 L 1030 743 L 1030 734 L 1055 734 L 1055 723 L 1055 722 L 1017 722 Z " /><path fill="rgb(0,0,0)" stroke="rgb(0,0,0)" stroke-width="1" opacity="0" d="M 424.5 21 L 592.5 21 L 594 22.5 L 678 168.5 L 592.5 315 L 424.5 315 L 422 312.5 L 339 167.5 L 424.5 21 Z " /><path fill="rgb(0,0,0)" stroke="rgb(0,0,0)" stroke-width="1" opacity="0" d="M 1054 416 L 1089.5 416 Q 1090.7 418.3 1095.5 417 Q 1105.1 419.4 1110 426.5 Q 1113.4 431.6 1112 441.5 Q 1109.9 449.4 1103.5 453 L 1092.5 457 L 1054 457 L 1054 416 Z " /><path fill="rgb(0,0,0)" stroke="rgb(0,0,0)" stroke-width="1" opacity="0" d="M 1054 495 L 1091.5 495 Q 1093.2 497.8 1099.5 496 L 1113.5 501 L 1119 506.5 L 1121 510.5 L 1122 517.5 L 1120 525.5 L 1112.5 534 L 1098.5 539 L 1054 539 L 1054 495 Z " /><path fill="rgb(0,0,0)" stroke="rgb(0,0,0)" stroke-width="1" opacity="0" d="M 1452 625 L 1566.5 625 L 1568 626.5 L 1623 721.5 L 1624 726.5 L 1566.5 825 L 1452.5 825 L 1452 823.5 L 1395 724.5 L 1442 644.5 L 1452 625 Z " /><path fill="rgb(0,0,0)" stroke="rgb(0,0,0)" stroke-width="1" opacity="0" d="M 594.5 732 Q 605.8 732.2 610 739.5 L 612 743.5 L 613 751.5 L 611 758.5 L 606.5 764 Q 602 768.5 591.5 767 L 583 761.5 Q 579.2 756.8 579 748.5 L 582 739.5 L 586.5 735 L 594.5 732 Z " /><path fill="rgb(0,0,0)" stroke="rgb(0,0,0)" stroke-width="1" opacity="0" d="M 878 734 Q 894.7 731.5 901 740.5 Q 904 744.5 904 751.5 Q 902.8 759.3 897.5 763 Q 890.1 767.4 878 766 L 878 734 Z " /><path fill="rgb(244,187,69)" stroke="rgb(244,187,69)" stroke-width="1" opacity="0.9764705882352941" d="M 96.5 190 L 291.5 190 L 292 191.5 L 387 354.5 L 388 359.5 L 294 521.5 L 292 527 L 96.5 527 L 96 525.5 L 3 365.5 L 0 359.5 L 0 356.5 L 96.5 190 Z " /><path fill="rgb(244,187,69)" stroke="rgb(244,187,69)" stroke-width="1" opacity="0.9764705882352941" d="M 419 378 L 464 378 L 464 457.5 L 475 447.5 L 539.5 378 L 598 378.5 L 510 470.5 L 597 566.5 L 605 577 L 543.5 577 L 538 571.5 L 464.5 485 L 464 577 L 419.5 577 L 419 576.5 L 419 378 Z " /><path fill="rgb(244,187,69)" stroke="rgb(244,187,69)" stroke-width="1" opacity="0.9764705882352941" d="M 652 378 L 696.5 378 L 697 378.5 L 697 577 L 652.5 577 L 652 576.5 L 652 378 Z " /><path fill="rgb(244,187,69)" stroke="rgb(244,187,69)" stroke-width="1" opacity="0.9764705882352941" d="M 769 378 L 814 378 L 814 506.5 Q 817.8 524.8 830.5 534 L 843.5 540 L 856.5 541 L 870.5 537 L 884 525.5 Q 889.7 517.7 892 506.5 L 892 378 L 937 378 L 937 507.5 L 936 508.5 L 935 521.5 L 931 535.5 Q 923.7 552.7 910.5 564 Q 898.5 574 881.5 579 L 864.5 582 L 841.5 582 L 840.5 581 L 828.5 580 L 813.5 575 Q 796.9 567.6 786 554.5 L 775 535.5 L 771 522.5 L 770 509.5 L 769 508.5 L 769 378 Z " /><path fill="rgb(244,187,69)" stroke="rgb(244,187,69)" stroke-width="1" opacity="0.9764705882352941" d="M 1010 378 L 1097.5 378 L 1098.5 379 L 1107.5 379 L 1125.5 383 Q 1139.4 388.1 1148 398.5 Q 1158.6 410.4 1157 434.5 L 1153 449.5 L 1145 461 L 1133.5 469 L 1125 472.5 Q 1146.1 476.9 1157 491.5 Q 1162.7 498.3 1165 508.5 L 1166 513.5 L 1166 530.5 Q 1162.3 549.8 1149.5 560 L 1130.5 571 L 1116.5 575 L 1103.5 576 L 1102.5 577 L 1010 577 L 1010 378 Z M 1054 416 L 1054 457 L 1093 457 L 1104 453 Q 1110 449 1112 442 Q 1113 432 1110 427 Q 1105 419 1096 417 Q 1091 418 1090 416 L 1054 416 Z M 1054 495 L 1054 539 L 1099 539 L 1113 534 L 1120 526 L 1122 518 L 1121 511 L 1119 507 L 1114 501 L 1100 496 Q 1093 498 1092 495 L 1054 495 Z " /><path fill="rgb(244,187,69)" stroke="rgb(244,187,69)" stroke-width="1" opacity="0.9764705882352941" d="M 1226 378 L 1360.5 378 L 1361 378.5 L 1361 419 L 1270 419 L 1270 455 L 1356 455 L 1356 496 L 1270 496 L 1270 536 L 1366 536 L 1366 577 L 1226 577 L 1226 378 Z " /><path fill="rgb(244,187,69)" stroke="rgb(244,187,69)" stroke-width="1" opacity="0.9764705882352941" d="M 1436 378 L 1570.5 378 L 1571 378.5 L 1571 419 L 1480 419 L 1480 455 L 1566 455 L 1566 496 L 1480 496 L 1480 536 L 1576 536 L 1576 577 L 1436 577 L 1436 378 Z " /><path fill="rgb(244,187,69)" stroke="rgb(244,187,69)" stroke-width="1" opacity="0.9764705882352941" d="M 1439.5 604 L 1580.5 604 L 1581 605.5 L 1650 725.5 L 1581 846 L 1439.5 846 L 1438 844.5 L 1371 728.5 L 1370 723.5 L 1439.5 604 Z M 1452 625 L 1442 645 L 1395 725 L 1452 824 L 1453 825 L 1567 825 L 1624 727 L 1623 722 L 1568 627 L 1567 625 L 1452 625 Z " /><path fill="rgb(244,187,69)" stroke="rgb(244,187,69)" stroke-width="1" opacity="0.9764705882352941" d="M 592.5 720 Q 613.2 719.3 621 731.5 Q 627.9 739.6 626 756.5 Q 623.5 767 616.5 773 Q 607.9 781.4 588.5 779 Q 578 776.5 572 769.5 L 566 756.5 L 566 743.5 Q 568.2 731.7 576.5 726 L 583.5 722 L 592.5 720 Z M 595 732 L 587 735 L 582 740 L 579 749 Q 579 757 583 762 L 592 767 Q 602 769 607 764 L 611 759 L 613 752 L 612 744 L 610 740 Q 606 732 595 732 Z " /><path fill="rgb(244,187,69)" stroke="rgb(244,187,69)" stroke-width="1" opacity="0.9764705882352941" d="M 964.5 720 L 971.5 720 L 981.5 722 L 990 727.5 L 981.5 738 L 974.5 733 L 966.5 732 L 959.5 734 L 955 737 L 951 745.5 L 951 754.5 Q 952.8 761.7 958.5 765 Q 963.2 768.8 973.5 767 L 979 765 L 979 756 L 969 756 L 969 744 L 991 744 L 991 773.5 Q 980.6 781.6 959.5 779 Q 947.9 776.1 942 767.5 L 938 758.5 L 937 746.5 L 940 735.5 L 949.5 725 L 955.5 722 L 964.5 720 Z " /><path fill="rgb(244,187,69)" stroke="rgb(244,187,69)" stroke-width="1" opacity="0.9764705882352941" d="M 418 722 L 431 722 L 431 743.5 L 433 742.5 L 451.5 722 L 467.5 722 L 468 723.5 L 449 742.5 L 445 748.5 L 471 777.5 L 453.5 778 L 431.5 753 L 431 778 L 418.5 778 L 418 777.5 L 418 722 Z " /><path fill="rgb(244,187,69)" stroke="rgb(244,187,69)" stroke-width="1" opacity="0.9764705882352941" d="M 490 722 L 506.5 722 L 509 724.5 L 529.5 759 L 530 722 L 542.5 722 L 543 722.5 L 543 778 L 526.5 778 L 525 776.5 L 503.5 741 L 503 778 L 490.5 778 L 490 777.5 L 490 722 Z " /><path fill="rgb(244,187,69)" stroke="rgb(244,187,69)" stroke-width="1" opacity="0.9764705882352941" d="M 644 722 L 657.5 722 L 658 724.5 L 666.5 756 L 677 722 L 689.5 722 L 690 724.5 L 700.5 757 L 709 723.5 L 710.5 722 L 722.5 722 L 723 723.5 L 720 730.5 L 707 778 L 695.5 778 L 695 776.5 L 683.5 742 L 670.5 778 L 660.5 778 L 660 776.5 L 644 722 Z " /><path fill="rgb(244,187,69)" stroke="rgb(244,187,69)" stroke-width="1" opacity="0.9764705882352941" d="M 743 722 L 755.5 722 L 756 722.5 L 756 766 L 779 766 L 779 778 L 743 778 L 743 722 Z " /><path fill="rgb(244,187,69)" stroke="rgb(244,187,69)" stroke-width="1" opacity="0.9764705882352941" d="M 801 722 L 838.5 722 L 839 722.5 L 839 734 L 814 734 L 814 743 L 838 743 L 838 755 L 814 755 L 814 766 L 841 766 L 841 778 L 801 778 L 801 722 Z " /><path fill="rgb(244,187,69)" stroke="rgb(244,187,69)" stroke-width="1" opacity="0.9764705882352941" d="M 865 722 L 892.5 722 L 897.5 723 Q 907.8 725.8 913 733.5 Q 918.9 741.1 917 756.5 Q 914.3 766.8 906.5 772 Q 900.5 776.5 891.5 778 L 865 778 L 865 722 Z M 878 734 L 878 766 Q 890 767 898 763 Q 903 759 904 752 Q 904 745 901 741 Q 895 732 878 734 Z " /><path fill="rgb(244,187,69)" stroke="rgb(244,187,69)" stroke-width="1" opacity="0.9764705882352941" d="M 1017 722 L 1054.5 722 L 1055 722.5 L 1055 734 L 1030 734 L 1030 743 L 1054 743 L 1054 755 L 1030 755 L 1030 766 L 1057 766 L 1057 778 L 1017 778 L 1017 722 Z " /></svg>