<?xml version="1.0" encoding="UTF-8"?>
<!DOCTYPE svg PUBLIC "-//W3C//DTD SVG 1.1//EN" "http://www.w3.org/Graphics/SVG/1.1/DTD/svg11.dtd">
<!-- Creator: CorelDRAW 2020 (64-Bit) -->
<svg xmlns="http://www.w3.org/2000/svg" xml:space="preserve" width="552px" height="120px" version="1.1" style="shape-rendering:geometricPrecision; text-rendering:geometricPrecision; image-rendering:optimizeQuality; fill-rule:evenodd; clip-rule:evenodd"
viewBox="0 0 57.04 12.39"
 xmlns:xlink="http://www.w3.org/1999/xlink"
 xmlns:xodm="http://www.corel.com/coreldraw/odm/2003">
 <defs>
  <style type="text/css">
   <![CDATA[
    .fil3 {fill:#003150}
    .fil0 {fill:darkorange;fill-rule:nonzero}
    .fil1 {fill:url(#id0)}
    .fil2 {fill:url(#id1)}
   ]]>
  </style>
  <linearGradient id="id0" gradientUnits="userSpaceOnUse" x1="5.98" y1="6.5" x2="5.45" y2="6.2">
   <stop offset="0" style="stop-opacity:1; stop-color:#B86500"/>
   <stop offset="1" style="stop-opacity:1; stop-color:darkorange"/>
  </linearGradient>
  <linearGradient id="id1" gradientUnits="userSpaceOnUse" xlink:href="#id0" x1="6.78" y1="7.59" x2="6.25" y2="7.9">
  </linearGradient>
 </defs>
 <g id="Layer_x0020_1">
  <metadata id="CorelCorpID_0Corel-Layer"/>
  <g id="_2215836557008">
   <g>
    <path class="fil0" d="M5.68 7.05l-1.22 -2.12 -2.44 0 -0.61 1.06 -0.01 0.02 -0.6 1.04 0.61 1.05 0 0 0.61 1.06 2.45 0 0.61 -1.06 -0.01 0 0.61 -1.05zm-1 5.34c-0.15,0 -0.28,-0.08 -0.34,-0.21l-0.7 -1.22 -0.01 -0.02 -0.6 -1.03 -1.22 0 0 0c-0.13,0 -0.26,-0.07 -0.32,-0.19l-0.72 -1.24 0 0 -0.72 -1.24c-0.06,-0.11 -0.07,-0.26 0,-0.38l0.71 -1.22 0.01 -0.02 0.7 -1.22c0.06,-0.13 0.19,-0.21 0.34,-0.21l1.22 0 0.6 -1.04 0.01 -0.02 0.61 -1.06 -0.88 -1.51c-0.1,-0.18 -0.04,-0.41 0.14,-0.51 0.18,-0.1 0.41,-0.04 0.51,0.14l0.87 1.51 2.45 0 0.87 -1.51c0.1,-0.18 0.33,-0.24 0.51,-0.14 0.18,0.1 0.24,0.33 0.14,0.51l-0.88 1.51 1.22 2.12 1.22 0 0 0c0.13,0 0.26,0.06 0.33,0.18l0.71 1.25 0 0 0.72 1.24c0.06,0.11 0.07,0.25 0,0.37l-0.71 1.23 -0.01 0.02 -0.7 1.22c-0.06,0.12 -0.19,0.21 -0.34,0.21l-1.22 0 -1.33 2.3c-0.07,0.12 -0.19,0.18 -0.32,0.18l0 0c-2.12,0 -0.75,0 -2.87,0zm-0.79 -2.48l0.38 0.66 0.01 0.02 0.61 1.06 2.45 0 1 -1.74 -0.79 0 0 0c-0.13,0 -0.25,-0.07 -0.32,-0.19l-0.71 -1.22 -0.01 -0.02 -0.39 -0.69 -0.4 0.69 0 0 -0.7 1.21c-0.06,0.13 -0.19,0.22 -0.34,0.22l-0.79 0zm4.45 -5.72l-1 -1.74 -2.45 0 -0.61 1.05 -0.01 0.02 -0.38 0.67 0.79 0 0 0c0.13,0 0.25,0.06 0.32,0.18l0.72 1.25 0.4 0.68 1.09 -1.9c0.07,-0.13 0.19,-0.21 0.34,-0.21l0.79 0zm-1.79 2.86l0.61 1.05 0.01 0.02 0.59 1.04 2.45 0 0.61 -1.06 0.01 -0.02 0.6 -1.03 -0.61 -1.06 0 0 -0.61 -1.06 -2.44 0 -1.22 2.12z"/>
    <polygon class="fil1" points="5.31,6.4 5.68,7.05 6.12,6.3 5.74,5.65 "/>
    <polygon class="fil2" points="6.92,7.7 6.55,7.05 6.12,7.79 6.49,8.44 "/>
   </g>
   <g>
    <g>
     <g>
      <polygon class="fil3" points="21.03,4.32 22.33,4.32 22.33,9.95 21.03,9.95 "/>
      <path class="fil3" d="M26.49 10.04c-0.81,0 -1.43,-0.22 -1.88,-0.67 -0.45,-0.44 -0.67,-1.08 -0.67,-1.9l0 -3.15 1.3 0 0 3.1c0,1.01 0.42,1.51 1.25,1.51 0.41,0 0.72,-0.12 0.94,-0.36 0.21,-0.25 0.32,-0.63 0.32,-1.15l0 -3.1 1.29 0 0 3.15c0,0.82 -0.23,1.46 -0.68,1.9 -0.44,0.45 -1.07,0.67 -1.87,0.67z"/>
      <path class="fil3" d="M34.78 7.02c0.32,0.1 0.57,0.27 0.75,0.51 0.19,0.24 0.28,0.53 0.28,0.88 0,0.49 -0.19,0.87 -0.58,1.14 -0.38,0.26 -0.94,0.4 -1.68,0.4l-2.91 0 0 -5.63 2.75 0c0.69,0 1.22,0.13 1.58,0.39 0.37,0.26 0.56,0.62 0.56,1.07 0,0.27 -0.07,0.52 -0.2,0.73 -0.13,0.22 -0.32,0.38 -0.55,0.51zm-2.84 -1.72l0 1.32 1.29 0c0.32,0 0.57,-0.05 0.73,-0.16 0.17,-0.12 0.25,-0.28 0.25,-0.5 0,-0.22 -0.08,-0.39 -0.25,-0.5 -0.16,-0.11 -0.41,-0.16 -0.73,-0.16l-1.29 0zm1.52 3.66c0.34,0 0.6,-0.05 0.77,-0.16 0.18,-0.12 0.27,-0.29 0.27,-0.53 0,-0.46 -0.35,-0.7 -1.04,-0.7l-1.52 0 0 1.39 1.52 0z"/>
      <polygon class="fil3" points="41.48,8.9 41.48,9.95 37.12,9.95 37.12,4.32 41.37,4.32 41.37,5.36 38.41,5.36 38.41,6.58 41.03,6.58 41.03,7.6 38.41,7.6 38.41,8.9 "/>
      <polygon class="fil3" points="47.19,8.9 47.19,9.95 42.83,9.95 42.83,4.32 47.09,4.32 47.09,5.36 44.13,5.36 44.13,6.58 46.74,6.58 46.74,7.6 44.13,7.6 44.13,8.9 "/>
      <polygon class="fil3" points="18.22,9.95 19.74,9.95 17.51,7.13 19.74,4.32 18.22,4.32 15.92,7.13 "/>
      <rect class="fil3" x="14.63" y="4.32" width="1.3" height="5.63"/>
     </g>
    </g>
    <path class="fil3" d="M48.9 9.95c-0.18,0 -0.33,-0.07 -0.46,-0.19 -0.13,-0.13 -0.19,-0.29 -0.19,-0.48 0,-0.2 0.06,-0.35 0.19,-0.48 0.12,-0.12 0.28,-0.18 0.46,-0.18 0.19,0 0.35,0.06 0.47,0.18 0.13,0.13 0.19,0.28 0.19,0.48 0,0.19 -0.06,0.35 -0.19,0.48 -0.13,0.12 -0.28,0.19 -0.47,0.19zm1.64 -4.33l1 0 0 4.27 -1 0 0 -4.27zm0.5 -0.7c-0.18,0 -0.33,-0.06 -0.46,-0.18 -0.12,-0.11 -0.18,-0.25 -0.18,-0.42 0,-0.17 0.06,-0.32 0.18,-0.43 0.13,-0.12 0.28,-0.17 0.46,-0.17 0.18,0 0.33,0.05 0.46,0.16 0.12,0.11 0.18,0.25 0.18,0.41 0,0.18 -0.06,0.33 -0.18,0.45 -0.12,0.12 -0.27,0.18 -0.46,0.18zm3.73 5.03c-0.44,0 -0.83,-0.1 -1.17,-0.28 -0.35,-0.19 -0.62,-0.45 -0.81,-0.78 -0.2,-0.34 -0.3,-0.71 -0.3,-1.14 0,-0.42 0.1,-0.79 0.3,-1.12 0.19,-0.33 0.46,-0.59 0.81,-0.78 0.34,-0.18 0.73,-0.28 1.17,-0.28 0.43,0 0.82,0.1 1.17,0.28 0.35,0.19 0.62,0.45 0.81,0.78 0.2,0.33 0.29,0.7 0.29,1.12 0,0.43 -0.09,0.8 -0.29,1.14 -0.19,0.33 -0.46,0.59 -0.81,0.78 -0.35,0.18 -0.74,0.28 -1.17,0.28zm0 -0.86c0.36,0 0.67,-0.12 0.91,-0.37 0.24,-0.24 0.36,-0.57 0.36,-0.97 0,-0.39 -0.12,-0.72 -0.36,-0.96 -0.24,-0.25 -0.55,-0.37 -0.91,-0.37 -0.37,0 -0.67,0.12 -0.91,0.37 -0.24,0.24 -0.36,0.57 -0.36,0.96 0,0.4 0.12,0.73 0.36,0.97 0.24,0.25 0.54,0.37 0.91,0.37z"/>
   </g>
  </g>
 </g>
</svg>
